<?xml version="1.0" encoding="utf-8"?>
<!-- Generator: Adobe Illustrator 22.1.0, SVG Export Plug-In . SVG Version: 6.00 Build 0)  -->
<svg version="1.1" id="Слой_1" xmlns="http://www.w3.org/2000/svg" xmlns:xlink="http://www.w3.org/1999/xlink" x="0px" y="0px"
	 viewBox="0 0 1728 1296" style="enable-background:new 0 0 1728 1296;" xml:space="preserve">
<style type="text/css">
	.st0{fill:#2C2C2C;}
	.st1{fill:none;}
</style>
<g>
	<path class="st0" d="M284.7,532.8c-2.1,29.5-13,52.7-32.6,69.7c-19.6,17-45.5,25.4-77.5,25.4c-35.1,0-62.7-11.8-82.8-35.5
		c-20.1-23.7-30.2-56.2-30.2-97.5v-16.8c0-26.4,4.6-49.6,13.9-69.7c9.3-20.1,22.5-35.5,39.8-46.2c17.2-10.7,37.2-16.1,60.1-16.1
		c31.6,0,57,8.5,76.3,25.4c19.3,17,30.5,40.8,33.5,71.4h-56.4c-1.4-17.7-6.3-30.5-14.8-38.5c-8.5-8-21.3-12-38.6-12
		c-18.8,0-32.9,6.8-42.2,20.3c-9.3,13.5-14.1,34.4-14.4,62.8v20.7c0,29.6,4.5,51.3,13.4,65c9,13.7,23.1,20.5,42.4,20.5
		c17.4,0,30.4-4,39-12c8.6-8,13.5-20.3,14.8-37H284.7z"/>
	<path class="st0" d="M378.1,578.8h119.7v45.4H321.7V349.9h56.4V578.8z"/>
	<path class="st0" d="M590.1,624.2h-56.4V349.9h56.4V624.2z"/>
	<path class="st0" d="M716,349.9l70.3,198.9l69.9-198.9h74.1v274.3h-56.6v-75l5.6-129.4l-73.9,204.4h-38.7L693.1,420l5.6,129.2v75
		h-56.4V349.9H716z"/>
	<path class="st0" d="M1137.4,567.7h-98.9l-18.8,56.5h-60l101.9-274.3h52.3l102.4,274.3h-60L1137.4,567.7z M1053.8,521.9h68.4
		l-34.4-102.7L1053.8,521.9z"/>
	<path class="st0" d="M1425.4,395.7h-83.8v228.5h-56.4V395.7h-82.7v-45.8h222.9V395.7z"/>
	<path class="st0" d="M1622.2,505.3h-108.3v73.5H1641v45.4h-183.5V349.9h183.1v45.8h-126.7V461h108.3V505.3z"/>
</g>
<g>
	<path class="st0" d="M618,847.2c0-10.7-3.8-18.9-11.3-24.6c-7.5-5.7-21.1-11.7-40.7-18.1c-19.6-6.3-35.1-12.6-46.5-18.7
		c-31.1-16.8-46.7-39.5-46.7-68c0-14.8,4.2-28,12.5-39.7c8.4-11.6,20.3-20.7,36-27.2c15.6-6.5,33.2-9.8,52.6-9.8
		c19.6,0,37,3.5,52.4,10.6c15.3,7.1,27.2,17.1,35.7,30c8.5,12.9,12.7,27.6,12.7,44.1h-56.5c0-12.6-4-22.3-11.9-29.3
		c-7.9-7-19-10.5-33.3-10.5c-13.8,0-24.6,2.9-32.2,8.8c-7.7,5.8-11.5,13.5-11.5,23.1c0,8.9,4.5,16.4,13.5,22.4
		c9,6,22.2,11.7,39.7,17c32.1,9.7,55.6,21.7,70.3,36s22,32.1,22,53.5c0,23.7-9,42.4-26.9,55.9c-18,13.5-42.1,20.3-72.5,20.3
		c-21.1,0-40.3-3.9-57.6-11.6c-17.3-7.7-30.5-18.3-39.7-31.7c-9.1-13.4-13.7-29-13.7-46.7H521c0,30.3,18.1,45.4,54.3,45.4
		c13.4,0,23.9-2.7,31.5-8.2S618,857,618,847.2z"/>
	<path class="st0" d="M919.4,690.6h-84v228.5h-56.5V690.6H696v-45.8h223.4V690.6z"/>
	<path class="st0" d="M1171.6,788.2c0,27-4.8,50.7-14.3,71c-9.5,20.3-23.2,36-41,47.1c-17.8,11.1-38.1,16.6-61.1,16.6
		c-22.7,0-43-5.5-60.8-16.4c-17.8-10.9-31.6-26.5-41.4-46.8c-9.8-20.3-14.8-43.6-14.9-70v-13.6c0-27,4.9-50.8,14.6-71.3
		c9.7-20.5,23.5-36.3,41.3-47.3c17.8-11,38.1-16.5,60.9-16.5c22.9,0,43.2,5.5,60.9,16.5c17.8,11,31.5,26.7,41.3,47.3
		c9.7,20.5,14.6,44.2,14.6,71.1V788.2z M1114.3,775.8c0-28.8-5.2-50.6-15.4-65.6c-10.3-14.9-25-22.4-44.1-22.4
		c-19,0-33.6,7.4-43.9,22.1c-10.3,14.8-15.5,36.4-15.6,64.9v13.4c0,28,5.1,49.7,15.4,65.2s25.1,23.2,44.5,23.2
		c19,0,33.5-7.4,43.7-22.3s15.3-36.6,15.4-65.1V775.8z"/>
	<path class="st0" d="M1314.2,818.7h-45v100.4h-56.5V644.9h101.9c32.4,0,57.4,7.2,75,21.7c17.6,14.4,26.4,34.8,26.4,61.2
		c0,18.7-4,34.3-12.1,46.8c-8.1,12.5-20.4,22.4-36.8,29.9l59.3,112.1v2.6h-60.7L1314.2,818.7z M1269.2,773h45.6
		c14.2,0,25.2-3.6,33-10.8c7.8-7.2,11.7-17.2,11.7-29.9c0-12.9-3.7-23.1-11-30.5c-7.3-7.4-18.6-11.1-33.8-11.1h-45.4V773z"/>
	<path class="st0" d="M1623.9,800.3h-108.5v73.5h127.3v45.4h-183.8V644.9h183.5v45.8h-127V756h108.5V800.3z"/>
</g>
<g>
	<rect x="33.8" y="345.5" class="st1" width="1771.5" height="234.4"/>
</g>
<g>
</g>
<g>
</g>
<g>
</g>
<g>
</g>
<g>
</g>
</svg>
